# xmcd CD database file
#
# Track frame offsets:
#	150
#	31452
#	55727
#	81020
#	112220
#	146837
#	174897
#	196160
#	223122
#	254075
#
# Disc length: 3720 seconds
#
# Revision: 5
# Processed by: cddbd v1.5.2PL0 Copyright (c) Steve Scherf et al.
# Submitted via: CDex 1.70beta3
#
DISCID=930e860a
DTITLE=Various Artist - SHADES OF BLUE COMPLETED Disc1
DYEAR=2005
DGENRE=Jazz
TTITLE0=MAIDEN VOYAGE - Dianne Reeves with Geri Allen
TTITLE1=UN POCO LOCO - Jacky Terrasson Trio
TTITLE2=BLUE TRAIN - Greg Osby and Street Jazz
TTITLE3=LITTLE B’Ｓ POEM - Kevin Eubanks Quartet
TTITLE4=YOU'VE CHANGED - Marcus Printup Quartet
TTITLE5=KOOL-O,KOOL-O - Tukka Yooot (Us3) with Terumasa Hino
TTITLE6=EVIDENCE - Ron Carter with T.S. Monk
TTITLE7=SONG FOR MY FATHER - Renee Rosnes Sextet
TTITLE8=TANGANYIKA DANCE - Kurt Elling and His Trio
TTITLE9=TOM THUMB - John Scofield Quartet
EXTD=YEAR: 2005
EXTT0=
EXTT1=
EXTT2=
EXTT3=
EXTT4=
EXTT5=
EXTT6=
EXTT7=
EXTT8=
EXTT9=
PLAYORDER=
